solid ascii
  facet normal -1.000000e+00 0.000000e+00 0.000000e+00
    outer loop
      vertex   9.000000e+00 5.799999e+00 2.600000e+00
      vertex   9.000000e+00 5.800000e+00 4.400000e+00
      vertex   9.000000e+00 6.599999e+00 2.600000e+00
    endloop
  endfacet
  facet normal -1.000000e+00 0.000000e+00 0.000000e+00
    outer loop
      vertex   9.000000e+00 6.599999e+00 2.600000e+00
      vertex   9.000000e+00 5.800000e+00 4.400000e+00
      vertex   9.000000e+00 6.600000e+00 4.400000e+00
    endloop
  endfacet
  facet normal -1.000000e+00 0.000000e+00 -0.000000e+00
    outer loop
      vertex   9.000000e+00 5.799999e+00 1.800000e+00
      vertex   9.000000e+00 6.599999e+00 1.800000e+00
      vertex   9.000000e+00 5.800000e+00 0.000000e+00
    endloop
  endfacet
  facet normal -1.000000e+00 0.000000e+00 0.000000e+00
    outer loop
      vertex   9.000000e+00 5.800000e+00 0.000000e+00
      vertex   9.000000e+00 6.599999e+00 1.800000e+00
      vertex   9.000000e+00 6.600000e+00 0.000000e+00
    endloop
  endfacet
  facet normal 5.913637e-01 0.000000e+00 -8.064050e-01
    outer loop
      vertex   1.200000e+01 5.800000e+00 2.200000e+00
      vertex   9.000000e+00 5.800000e+00 0.000000e+00
      vertex   1.200000e+01 6.600000e+00 2.200000e+00
    endloop
  endfacet
  facet normal 5.913637e-01 0.000000e+00 -8.064050e-01
    outer loop
      vertex   1.200000e+01 6.600000e+00 2.200000e+00
      vertex   9.000000e+00 5.800000e+00 0.000000e+00
      vertex   9.000000e+00 6.600000e+00 0.000000e+00
    endloop
  endfacet
  facet normal 5.913637e-01 0.000000e+00 8.064050e-01
    outer loop
      vertex   9.000000e+00 5.800000e+00 4.400000e+00
      vertex   1.200000e+01 5.800000e+00 2.200000e+00
      vertex   9.000000e+00 6.600000e+00 4.400000e+00
    endloop
  endfacet
  facet normal 5.913637e-01 -0.000000e+00 8.064050e-01
    outer loop
      vertex   9.000000e+00 6.600000e+00 4.400000e+00
      vertex   1.200000e+01 5.800000e+00 2.200000e+00
      vertex   1.200000e+01 6.600000e+00 2.200000e+00
    endloop
  endfacet
  facet normal 0.000000e+00 1.000000e+00 -3.311369e-07
    outer loop
      vertex   9.000000e+00 5.799999e+00 2.600000e+00
      vertex   0.000000e+00 5.799999e+00 2.600000e+00
      vertex   9.000000e+00 5.800000e+00 4.400000e+00
    endloop
  endfacet
  facet normal 1.854367e-08 1.000000e+00 -4.238553e-07
    outer loop
      vertex   9.000000e+00 5.800000e+00 4.400000e+00
      vertex   0.000000e+00 5.799999e+00 2.600000e+00
      vertex   0.000000e+00 5.800000e+00 4.400000e+00
    endloop
  endfacet
  facet normal -5.563100e-08 1.000000e+00 -7.586046e-08
    outer loop
      vertex   1.200000e+01 5.800000e+00 2.200000e+00
      vertex   9.000000e+00 5.800000e+00 4.400000e+00
      vertex   1.200000e+01 5.800000e+00 4.400000e+00
    endloop
  endfacet
  facet normal -5.563100e-08 1.000000e+00 7.586046e-08
    outer loop
      vertex   9.000000e+00 5.800000e+00 0.000000e+00
      vertex   1.200000e+01 5.800000e+00 2.200000e+00
      vertex   1.200000e+01 5.800000e+00 0.000000e+00
    endloop
  endfacet
  facet normal 0.000000e+00 0.000000e+00 -1.000000e+00
    outer loop
      vertex   9.000000e+00 5.799999e+00 1.800000e+00
      vertex   0.000000e+00 5.799999e+00 1.800000e+00
      vertex   9.000000e+00 6.599999e+00 1.800000e+00
    endloop
  endfacet
  facet normal -0.000000e+00 0.000000e+00 -1.000000e+00
    outer loop
      vertex   9.000000e+00 6.599999e+00 1.800000e+00
      vertex   0.000000e+00 5.799999e+00 1.800000e+00
      vertex   0.000000e+00 6.599999e+00 1.800000e+00
    endloop
  endfacet
  facet normal 0.000000e+00 -0.000000e+00 1.000000e+00
    outer loop
      vertex   0.000000e+00 5.799999e+00 2.600000e+00
      vertex   9.000000e+00 5.799999e+00 2.600000e+00
      vertex   0.000000e+00 6.599999e+00 2.600000e+00
    endloop
  endfacet
  facet normal -0.000000e+00 0.000000e+00 1.000000e+00
    outer loop
      vertex   0.000000e+00 6.599999e+00 2.600000e+00
      vertex   9.000000e+00 5.799999e+00 2.600000e+00
      vertex   9.000000e+00 6.599999e+00 2.600000e+00
    endloop
  endfacet
  facet normal -0.000000e+00 1.000000e+00 0.000000e+00
    outer loop
      vertex   0.000000e+00 6.599999e+00 1.800000e+00
      vertex   0.000000e+00 6.599999e+00 2.600000e+00
      vertex   9.000000e+00 6.599999e+00 1.800000e+00
    endloop
  endfacet
  facet normal 0.000000e+00 1.000000e+00 -0.000000e+00
    outer loop
      vertex   9.000000e+00 6.599999e+00 1.800000e+00
      vertex   0.000000e+00 6.599999e+00 2.600000e+00
      vertex   9.000000e+00 6.599999e+00 2.600000e+00
    endloop
  endfacet
  facet normal -2.428337e-07 1.000000e+00 -3.311369e-07
    outer loop
      vertex   1.200000e+01 6.600000e+00 2.200000e+00
      vertex   9.000000e+00 6.599999e+00 2.600000e+00
      vertex   9.000000e+00 6.600000e+00 4.400000e+00
    endloop
  endfacet
  facet normal -1.986821e-07 1.000000e+00 0.000000e+00
    outer loop
      vertex   1.200000e+01 6.600000e+00 2.200000e+00
      vertex   9.000000e+00 6.599999e+00 1.800000e+00
      vertex   9.000000e+00 6.599999e+00 2.600000e+00
    endloop
  endfacet
  facet normal -2.428337e-07 1.000000e+00 3.311369e-07
    outer loop
      vertex   1.200000e+01 6.600000e+00 2.200000e+00
      vertex   9.000000e+00 6.600000e+00 0.000000e+00
      vertex   9.000000e+00 6.599999e+00 1.800000e+00
    endloop
  endfacet
  facet normal 1.854367e-08 1.000000e+00 3.311369e-07
    outer loop
      vertex   9.000000e+00 5.800000e+00 0.000000e+00
      vertex   0.000000e+00 5.800000e+00 0.000000e+00
      vertex   9.000000e+00 5.799999e+00 1.800000e+00
    endloop
  endfacet
  facet normal 0.000000e+00 1.000000e+00 4.238553e-07
    outer loop
      vertex   9.000000e+00 5.799999e+00 1.800000e+00
      vertex   0.000000e+00 5.800000e+00 0.000000e+00
      vertex   0.000000e+00 5.799999e+00 1.800000e+00
    endloop
  endfacet
  facet normal 1.000000e+00 0.000000e+00 0.000000e+00
    outer loop
      vertex   1.200000e+01 5.800000e+00 4.400000e+00
      vertex   1.200000e+01 3.000000e-01 4.400000e+00
      vertex   1.200000e+01 5.800000e+00 2.200000e+00
    endloop
  endfacet
  facet normal 1.000000e+00 0.000000e+00 0.000000e+00
    outer loop
      vertex   1.200000e+01 5.800000e+00 2.200000e+00
      vertex   1.200000e+01 3.000000e-01 4.400000e+00
      vertex   1.200000e+01 3.000000e-01 0.000000e+00
    endloop
  endfacet
  facet normal 1.000000e+00 0.000000e+00 0.000000e+00
    outer loop
      vertex   1.200000e+01 5.800000e+00 0.000000e+00
      vertex   1.200000e+01 5.800000e+00 2.200000e+00
      vertex   1.200000e+01 3.000000e-01 0.000000e+00
    endloop
  endfacet
  facet normal -0.000000e+00 -0.000000e+00 -1.000000e+00
    outer loop
      vertex   1.200000e+01 5.800000e+00 0.000000e+00
      vertex   1.200000e+01 3.000000e-01 0.000000e+00
      vertex   9.000000e+00 5.800000e+00 0.000000e+00
    endloop
  endfacet
  facet normal -0.000000e+00 -0.000000e+00 -1.000000e+00
    outer loop
      vertex   9.000000e+00 5.800000e+00 0.000000e+00
      vertex   1.200000e+01 3.000000e-01 0.000000e+00
      vertex   6.000000e+00 3.000000e-01 0.000000e+00
    endloop
  endfacet
  facet normal 0.000000e+00 -0.000000e+00 -1.000000e+00
    outer loop
      vertex   0.000000e+00 5.800000e+00 0.000000e+00
      vertex   6.000000e+00 3.000000e-01 0.000000e+00
      vertex   0.000000e+00 3.000000e-01 0.000000e+00
    endloop
  endfacet
  facet normal 0.000000e+00 -0.000000e+00 -1.000000e+00
    outer loop
      vertex   0.000000e+00 5.800000e+00 0.000000e+00
      vertex   9.000000e+00 5.800000e+00 0.000000e+00
      vertex   6.000000e+00 3.000000e-01 0.000000e+00
    endloop
  endfacet
  facet normal -1.000000e+00 0.000000e+00 0.000000e+00
    outer loop
      vertex   0.000000e+00 5.800000e+00 0.000000e+00
      vertex   0.000000e+00 3.000000e-01 0.000000e+00
      vertex   0.000000e+00 5.799999e+00 1.800000e+00
    endloop
  endfacet
  facet normal -1.000000e+00 -0.000000e+00 0.000000e+00
    outer loop
      vertex   0.000000e+00 5.799999e+00 1.800000e+00
      vertex   0.000000e+00 3.000000e-01 0.000000e+00
      vertex   0.000000e+00 3.000000e-01 4.400000e+00
    endloop
  endfacet
  facet normal -1.000000e+00 0.000000e+00 0.000000e+00
    outer loop
      vertex   0.000000e+00 5.799999e+00 2.600000e+00
      vertex   0.000000e+00 3.000000e-01 4.400000e+00
      vertex   0.000000e+00 5.800000e+00 4.400000e+00
    endloop
  endfacet
  facet normal -1.000000e+00 -0.000000e+00 -0.000000e+00
    outer loop
      vertex   0.000000e+00 5.799999e+00 2.600000e+00
      vertex   0.000000e+00 5.799999e+00 1.800000e+00
      vertex   0.000000e+00 3.000000e-01 4.400000e+00
    endloop
  endfacet
  facet normal -1.000000e+00 0.000000e+00 -0.000000e+00
    outer loop
      vertex   0.000000e+00 5.799999e+00 2.600000e+00
      vertex   0.000000e+00 6.599999e+00 2.600000e+00
      vertex   0.000000e+00 5.799999e+00 1.800000e+00
    endloop
  endfacet
  facet normal -1.000000e+00 0.000000e+00 0.000000e+00
    outer loop
      vertex   0.000000e+00 5.799999e+00 1.800000e+00
      vertex   0.000000e+00 6.599999e+00 2.600000e+00
      vertex   0.000000e+00 6.599999e+00 1.800000e+00
    endloop
  endfacet
  facet normal 0.000000e+00 -0.000000e+00 1.000000e+00
    outer loop
      vertex   1.000000e+01 3.000000e-01 1.400000e+00
      vertex   1.100000e+01 3.000000e-01 1.400000e+00
      vertex   1.000000e+01 3.800000e+00 1.400000e+00
    endloop
  endfacet
  facet normal -0.000000e+00 0.000000e+00 1.000000e+00
    outer loop
      vertex   1.000000e+01 3.800000e+00 1.400000e+00
      vertex   1.100000e+01 3.000000e-01 1.400000e+00
      vertex   1.100000e+01 4.800000e+00 1.400000e+00
    endloop
  endfacet
  facet normal 0.000000e+00 -0.000000e+00 1.000000e+00
    outer loop
      vertex   6.500000e+00 3.800000e+00 1.400000e+00
      vertex   1.100000e+01 4.800000e+00 1.400000e+00
      vertex   1.000000e+00 4.800000e+00 1.400000e+00
    endloop
  endfacet
  facet normal 0.000000e+00 0.000000e+00 1.000000e+00
    outer loop
      vertex   5.500000e+00 3.800000e+00 1.400000e+00
      vertex   1.000000e+00 4.800000e+00 1.400000e+00
      vertex   2.000000e+00 3.800000e+00 1.400000e+00
    endloop
  endfacet
  facet normal 0.000000e+00 -0.000000e+00 1.000000e+00
    outer loop
      vertex   5.500000e+00 3.800000e+00 1.400000e+00
      vertex   6.500000e+00 3.800000e+00 1.400000e+00
      vertex   1.000000e+00 4.800000e+00 1.400000e+00
    endloop
  endfacet
  facet normal -0.000000e+00 0.000000e+00 1.000000e+00
    outer loop
      vertex   5.500000e+00 3.800000e+00 1.400000e+00
      vertex   6.500000e+00 3.000000e-01 1.400000e+00
      vertex   6.500000e+00 3.800000e+00 1.400000e+00
    endloop
  endfacet
  facet normal -0.000000e+00 0.000000e+00 1.000000e+00
    outer loop
      vertex   5.500000e+00 3.800000e+00 1.400000e+00
      vertex   5.500000e+00 3.000000e-01 1.400000e+00
      vertex   6.500000e+00 3.000000e-01 1.400000e+00
    endloop
  endfacet
  facet normal 0.000000e+00 -0.000000e+00 1.000000e+00
    outer loop
      vertex   1.000000e+01 3.800000e+00 1.400000e+00
      vertex   1.100000e+01 4.800000e+00 1.400000e+00
      vertex   6.500000e+00 3.800000e+00 1.400000e+00
    endloop
  endfacet
  facet normal -0.000000e+00 0.000000e+00 1.000000e+00
    outer loop
      vertex   1.000000e+00 4.800000e+00 1.400000e+00
      vertex   1.000000e+00 3.000000e-01 1.400000e+00
      vertex   2.000000e+00 3.800000e+00 1.400000e+00
    endloop
  endfacet
  facet normal 0.000000e+00 0.000000e+00 1.000000e+00
    outer loop
      vertex   2.000000e+00 3.800000e+00 1.400000e+00
      vertex   1.000000e+00 3.000000e-01 1.400000e+00
      vertex   2.000000e+00 3.000000e-01 1.400000e+00
    endloop
  endfacet
  facet normal 1.000000e+00 0.000000e+00 -0.000000e+00
    outer loop
      vertex   1.000000e+01 3.000000e-01 1.400000e+00
      vertex   1.000000e+01 3.800000e+00 1.400000e+00
      vertex   1.000000e+01 3.000000e-01 4.400000e+00
    endloop
  endfacet
  facet normal 1.000000e+00 -0.000000e+00 0.000000e+00
    outer loop
      vertex   1.000000e+01 3.000000e-01 4.400000e+00
      vertex   1.000000e+01 3.800000e+00 1.400000e+00
      vertex   1.000000e+01 3.800000e+00 4.400000e+00
    endloop
  endfacet
  facet normal -0.000000e+00 -1.000000e+00 -0.000000e+00
    outer loop
      vertex   1.000000e+01 3.000000e-01 4.400000e+00
      vertex   6.500000e+00 3.000000e-01 4.400000e+00
      vertex   1.000000e+01 3.000000e-01 1.400000e+00
    endloop
  endfacet
  facet normal -0.000000e+00 -1.000000e+00 -0.000000e+00
    outer loop
      vertex   1.000000e+01 3.000000e-01 1.400000e+00
      vertex   6.500000e+00 3.000000e-01 4.400000e+00
      vertex   6.500000e+00 3.000000e-01 1.400000e+00
    endloop
  endfacet
  facet normal -0.000000e+00 -1.000000e+00 -3.965082e-16
    outer loop
      vertex   6.000000e+00 3.000000e-01 0.000000e+00
      vertex   6.500000e+00 3.000000e-01 1.400000e+00
      vertex   5.500000e+00 3.000000e-01 1.400000e+00
    endloop
  endfacet
  facet normal 0.000000e+00 -1.000000e+00 0.000000e+00
    outer loop
      vertex   2.000000e+00 3.000000e-01 1.400000e+00
      vertex   5.500000e+00 3.000000e-01 1.400000e+00
      vertex   2.000000e+00 3.000000e-01 4.400000e+00
    endloop
  endfacet
  facet normal 0.000000e+00 -1.000000e+00 -3.965082e-16
    outer loop
      vertex   2.000000e+00 3.000000e-01 1.400000e+00
      vertex   6.000000e+00 3.000000e-01 0.000000e+00
      vertex   5.500000e+00 3.000000e-01 1.400000e+00
    endloop
  endfacet
  facet normal 3.700743e-17 -1.000000e+00 -2.907727e-16
    outer loop
      vertex   2.000000e+00 3.000000e-01 1.400000e+00
      vertex   0.000000e+00 3.000000e-01 0.000000e+00
      vertex   6.000000e+00 3.000000e-01 0.000000e+00
    endloop
  endfacet
  facet normal -3.330669e-16 -1.000000e+00 2.379049e-16
    outer loop
      vertex   2.000000e+00 3.000000e-01 1.400000e+00
      vertex   1.000000e+00 3.000000e-01 1.400000e+00
      vertex   0.000000e+00 3.000000e-01 0.000000e+00
    endloop
  endfacet
  facet normal 0.000000e+00 -1.000000e+00 0.000000e+00
    outer loop
      vertex   0.000000e+00 3.000000e-01 0.000000e+00
      vertex   1.000000e+00 3.000000e-01 1.400000e+00
      vertex   0.000000e+00 3.000000e-01 4.400000e+00
    endloop
  endfacet
  facet normal 0.000000e+00 -1.000000e+00 0.000000e+00
    outer loop
      vertex   0.000000e+00 3.000000e-01 4.400000e+00
      vertex   1.000000e+00 3.000000e-01 1.400000e+00
      vertex   1.000000e+00 3.000000e-01 4.400000e+00
    endloop
  endfacet
  facet normal -0.000000e+00 -1.000000e+00 -3.965082e-16
    outer loop
      vertex   1.000000e+01 3.000000e-01 1.400000e+00
      vertex   6.500000e+00 3.000000e-01 1.400000e+00
      vertex   6.000000e+00 3.000000e-01 0.000000e+00
    endloop
  endfacet
  facet normal -3.700743e-17 -1.000000e+00 -2.907727e-16
    outer loop
      vertex   1.200000e+01 3.000000e-01 0.000000e+00
      vertex   1.000000e+01 3.000000e-01 1.400000e+00
      vertex   6.000000e+00 3.000000e-01 0.000000e+00
    endloop
  endfacet
  facet normal 3.330669e-16 -1.000000e+00 2.379049e-16
    outer loop
      vertex   1.200000e+01 3.000000e-01 0.000000e+00
      vertex   1.100000e+01 3.000000e-01 1.400000e+00
      vertex   1.000000e+01 3.000000e-01 1.400000e+00
    endloop
  endfacet
  facet normal -0.000000e+00 -1.000000e+00 0.000000e+00
    outer loop
      vertex   1.200000e+01 3.000000e-01 0.000000e+00
      vertex   1.200000e+01 3.000000e-01 4.400000e+00
      vertex   1.100000e+01 3.000000e-01 1.400000e+00
    endloop
  endfacet
  facet normal 0.000000e+00 -1.000000e+00 0.000000e+00
    outer loop
      vertex   1.100000e+01 3.000000e-01 1.400000e+00
      vertex   1.200000e+01 3.000000e-01 4.400000e+00
      vertex   1.100000e+01 3.000000e-01 4.400000e+00
    endloop
  endfacet
  facet normal 0.000000e+00 -1.000000e+00 0.000000e+00
    outer loop
      vertex   5.500000e+00 3.000000e-01 1.400000e+00
      vertex   5.500000e+00 3.000000e-01 4.400000e+00
      vertex   2.000000e+00 3.000000e-01 4.400000e+00
    endloop
  endfacet
  facet normal -1.000000e+00 0.000000e+00 0.000000e+00
    outer loop
      vertex   6.500000e+00 3.800000e+00 1.400000e+00
      vertex   6.500000e+00 3.000000e-01 1.400000e+00
      vertex   6.500000e+00 3.800000e+00 4.400000e+00
    endloop
  endfacet
  facet normal -1.000000e+00 -0.000000e+00 0.000000e+00
    outer loop
      vertex   6.500000e+00 3.800000e+00 4.400000e+00
      vertex   6.500000e+00 3.000000e-01 1.400000e+00
      vertex   6.500000e+00 3.000000e-01 4.400000e+00
    endloop
  endfacet
  facet normal 0.000000e+00 1.000000e+00 -0.000000e+00
    outer loop
      vertex   1.000000e+01 3.800000e+00 1.400000e+00
      vertex   6.500000e+00 3.800000e+00 1.400000e+00
      vertex   1.000000e+01 3.800000e+00 4.400000e+00
    endloop
  endfacet
  facet normal 0.000000e+00 1.000000e+00 -0.000000e+00
    outer loop
      vertex   1.000000e+01 3.800000e+00 4.400000e+00
      vertex   6.500000e+00 3.800000e+00 1.400000e+00
      vertex   6.500000e+00 3.800000e+00 4.400000e+00
    endloop
  endfacet
  facet normal 0.000000e+00 0.000000e+00 1.000000e+00
    outer loop
      vertex   1.000000e+01 3.800000e+00 4.400000e+00
      vertex   6.500000e+00 3.800000e+00 4.400000e+00
      vertex   1.000000e+01 3.000000e-01 4.400000e+00
    endloop
  endfacet
  facet normal 0.000000e+00 0.000000e+00 1.000000e+00
    outer loop
      vertex   1.000000e+01 3.000000e-01 4.400000e+00
      vertex   6.500000e+00 3.800000e+00 4.400000e+00
      vertex   6.500000e+00 3.000000e-01 4.400000e+00
    endloop
  endfacet
  facet normal 1.000000e+00 0.000000e+00 -0.000000e+00
    outer loop
      vertex   5.500000e+00 3.000000e-01 1.400000e+00
      vertex   5.500000e+00 3.800000e+00 1.400000e+00
      vertex   5.500000e+00 3.000000e-01 4.400000e+00
    endloop
  endfacet
  facet normal 1.000000e+00 -0.000000e+00 0.000000e+00
    outer loop
      vertex   5.500000e+00 3.000000e-01 4.400000e+00
      vertex   5.500000e+00 3.800000e+00 1.400000e+00
      vertex   5.500000e+00 3.800000e+00 4.400000e+00
    endloop
  endfacet
  facet normal -1.000000e+00 0.000000e+00 0.000000e+00
    outer loop
      vertex   2.000000e+00 3.800000e+00 1.400000e+00
      vertex   2.000000e+00 3.000000e-01 1.400000e+00
      vertex   2.000000e+00 3.800000e+00 4.400000e+00
    endloop
  endfacet
  facet normal -1.000000e+00 -0.000000e+00 0.000000e+00
    outer loop
      vertex   2.000000e+00 3.800000e+00 4.400000e+00
      vertex   2.000000e+00 3.000000e-01 1.400000e+00
      vertex   2.000000e+00 3.000000e-01 4.400000e+00
    endloop
  endfacet
  facet normal 0.000000e+00 1.000000e+00 -0.000000e+00
    outer loop
      vertex   5.500000e+00 3.800000e+00 1.400000e+00
      vertex   2.000000e+00 3.800000e+00 1.400000e+00
      vertex   5.500000e+00 3.800000e+00 4.400000e+00
    endloop
  endfacet
  facet normal 0.000000e+00 1.000000e+00 -0.000000e+00
    outer loop
      vertex   5.500000e+00 3.800000e+00 4.400000e+00
      vertex   2.000000e+00 3.800000e+00 1.400000e+00
      vertex   2.000000e+00 3.800000e+00 4.400000e+00
    endloop
  endfacet
  facet normal 0.000000e+00 0.000000e+00 1.000000e+00
    outer loop
      vertex   5.500000e+00 3.800000e+00 4.400000e+00
      vertex   2.000000e+00 3.800000e+00 4.400000e+00
      vertex   5.500000e+00 3.000000e-01 4.400000e+00
    endloop
  endfacet
  facet normal 0.000000e+00 0.000000e+00 1.000000e+00
    outer loop
      vertex   5.500000e+00 3.000000e-01 4.400000e+00
      vertex   2.000000e+00 3.800000e+00 4.400000e+00
      vertex   2.000000e+00 3.000000e-01 4.400000e+00
    endloop
  endfacet
  facet normal 1.000000e+00 0.000000e+00 -0.000000e+00
    outer loop
      vertex   1.000000e+00 3.000000e-01 1.400000e+00
      vertex   1.000000e+00 4.800000e+00 1.400000e+00
      vertex   1.000000e+00 3.000000e-01 4.400000e+00
    endloop
  endfacet
  facet normal 1.000000e+00 -0.000000e+00 0.000000e+00
    outer loop
      vertex   1.000000e+00 3.000000e-01 4.400000e+00
      vertex   1.000000e+00 4.800000e+00 1.400000e+00
      vertex   1.000000e+00 4.800000e+00 4.400000e+00
    endloop
  endfacet
  facet normal 0.000000e+00 -1.000000e+00 0.000000e+00
    outer loop
      vertex   1.000000e+00 4.800000e+00 1.400000e+00
      vertex   1.100000e+01 4.800000e+00 1.400000e+00
      vertex   1.000000e+00 4.800000e+00 4.400000e+00
    endloop
  endfacet
  facet normal 0.000000e+00 -1.000000e+00 0.000000e+00
    outer loop
      vertex   1.000000e+00 4.800000e+00 4.400000e+00
      vertex   1.100000e+01 4.800000e+00 1.400000e+00
      vertex   1.100000e+01 4.800000e+00 4.400000e+00
    endloop
  endfacet
  facet normal -1.000000e+00 0.000000e+00 -0.000000e+00
    outer loop
      vertex   1.100000e+01 3.000000e-01 4.400000e+00
      vertex   1.100000e+01 4.800000e+00 4.400000e+00
      vertex   1.100000e+01 3.000000e-01 1.400000e+00
    endloop
  endfacet
  facet normal -1.000000e+00 0.000000e+00 0.000000e+00
    outer loop
      vertex   1.100000e+01 3.000000e-01 1.400000e+00
      vertex   1.100000e+01 4.800000e+00 4.400000e+00
      vertex   1.100000e+01 4.800000e+00 1.400000e+00
    endloop
  endfacet
  facet normal 0.000000e+00 -0.000000e+00 1.000000e+00
    outer loop
      vertex   1.100000e+01 3.000000e-01 4.400000e+00
      vertex   1.200000e+01 3.000000e-01 4.400000e+00
      vertex   1.100000e+01 4.800000e+00 4.400000e+00
    endloop
  endfacet
  facet normal -0.000000e+00 0.000000e+00 1.000000e+00
    outer loop
      vertex   1.100000e+01 4.800000e+00 4.400000e+00
      vertex   1.200000e+01 3.000000e-01 4.400000e+00
      vertex   1.200000e+01 5.800000e+00 4.400000e+00
    endloop
  endfacet
  facet normal -0.000000e+00 0.000000e+00 1.000000e+00
    outer loop
      vertex   9.000000e+00 5.800000e+00 4.400000e+00
      vertex   1.100000e+01 4.800000e+00 4.400000e+00
      vertex   1.200000e+01 5.800000e+00 4.400000e+00
    endloop
  endfacet
  facet normal -0.000000e+00 0.000000e+00 1.000000e+00
    outer loop
      vertex   9.000000e+00 5.800000e+00 4.400000e+00
      vertex   1.000000e+00 4.800000e+00 4.400000e+00
      vertex   1.100000e+01 4.800000e+00 4.400000e+00
    endloop
  endfacet
  facet normal 0.000000e+00 0.000000e+00 1.000000e+00
    outer loop
      vertex   9.000000e+00 5.800000e+00 4.400000e+00
      vertex   0.000000e+00 5.800000e+00 4.400000e+00
      vertex   1.000000e+00 4.800000e+00 4.400000e+00
    endloop
  endfacet
  facet normal 0.000000e+00 0.000000e+00 1.000000e+00
    outer loop
      vertex   1.000000e+00 4.800000e+00 4.400000e+00
      vertex   0.000000e+00 5.800000e+00 4.400000e+00
      vertex   0.000000e+00 3.000000e-01 4.400000e+00
    endloop
  endfacet
  facet normal 0.000000e+00 -0.000000e+00 1.000000e+00
    outer loop
      vertex   1.000000e+00 3.000000e-01 4.400000e+00
      vertex   1.000000e+00 4.800000e+00 4.400000e+00
      vertex   0.000000e+00 3.000000e-01 4.400000e+00
    endloop
  endfacet
endsolid
